<?xml version="1.0" encoding="UTF-8"?><svg id="Layer_1" xmlns="http://www.w3.org/2000/svg" width="800.01" height="600" viewBox="0 0 800.01 600"><defs><style>.cls-1{fill:#12b57b;}.cls-2{fill:#cee6bf;}.cls-3{fill:#24420e;}.cls-4{fill:#3e6549;}</style></defs><path class="cls-2" d="M400.01,575c-246.08,0-358.46-239.04-373.96-275.01C41.52,263.96,153.61,25,400.01,25s358.46,239.04,373.96,275.01c-15.47,36.03-127.56,274.99-373.96,274.99Z"/><circle class="cls-1" cx="400.01" cy="300" r="175"/><circle class="cls-4" cx="400.01" cy="300.05" r="75"/><path class="cls-3" d="M799.18,295.51c-.19-.46-3.2-8.07-9.25-20.6C757.47,207.79,637.76,0,400.01,0,117.91,0,1.98,292.55.83,295.51c-1.11,2.89-1.11,6.09,0,8.99,1.15,2.95,117.08,295.5,399.18,295.5,237.63,0,357.34-207.56,389.86-274.79,6.08-12.59,9.11-20.25,9.3-20.71,1.11-2.9,1.11-6.1.01-8.99ZM400.01,575c-246.08,0-358.46-239.04-373.96-275.01C41.52,263.96,153.61,25,400.01,25s358.46,239.04,373.96,275.01c-15.47,36.03-127.56,274.99-373.96,274.99Z"/><path class="cls-3" d="M400.01,100.05c-110.46,0-200,89.54-200,200s89.54,200,200,200,200-89.54,200-200-89.54-200-200-200ZM400.01,475.05c-96.65,0-175-78.35-175-175s78.35-175,175-175,175,78.35,175,175-78.35,175-175,175Z"/><path class="cls-3" d="M400.01,200.05c-55.22,0-100,44.78-100,100s44.78,100,100,100,100-44.78,100-100-44.78-100-100-100ZM400.01,375.05c-41.41,0-75-33.59-75-75s33.59-75,75-75,75,33.59,75,75-33.59,75-75,75Z"/><path class="cls-3" d="M400.01,250c-6.91,0-12.5,5.59-12.5,12.5s5.59,12.5,12.5,12.5c13.8,0,25,11.2,25,25,0,6.91,5.59,12.5,12.5,12.5s12.5-5.59,12.5-12.5c0-27.61-22.39-50-50-50Z"/></svg>